<?xml version="1.0" encoding="UTF-8" standalone="no" ?>
<!DOCTYPE svg PUBLIC "-//W3C//DTD SVG 1.1//EN" "http://www.w3.org/Graphics/SVG/1.1/DTD/svg11.dtd">
<svg xmlns="http://www.w3.org/2000/svg" xmlns:xlink="http://www.w3.org/1999/xlink" version="1.1" width="1080" height="1080" viewBox="0 0 1080 1080" xml:space="preserve">
<desc>Created with Fabric.js 5.2.4</desc>
<defs>
</defs>
<rect x="0" y="0" width="100%" height="100%" fill="transparent"></rect>
<g transform="matrix(1 0 0 1 540 540)" id="bb97c145-d249-4fda-a589-28c72d1de068"  >
<rect style="stroke: none; stroke-width: 1; stroke-dasharray: none; stroke-linecap: butt; stroke-dashoffset: 0; stroke-linejoin: miter; stroke-miterlimit: 4; fill: rgb(255,255,255); fill-rule: nonzero; opacity: 1; visibility: hidden;" vector-effect="non-scaling-stroke"  x="-540" y="-540" rx="0" ry="0" width="1080" height="1080" />
</g>
<g transform="matrix(1 0 0 1 540 540)" id="bd5b84d7-d3e4-409e-9443-084a7d9e0ac9"  >
</g>
<g transform="matrix(1 0 0 1 540 540)"  >
<path style="stroke: none; stroke-width: 1; stroke-dasharray: none; stroke-linecap: butt; stroke-dashoffset: 0; stroke-linejoin: miter; stroke-miterlimit: 4; fill: rgb(0,0,0); fill-rule: nonzero; opacity: 0;" vector-effect="non-scaling-stroke"  transform=" translate(-513, -513)" d="M 703 1025 C 468.666656 1025 234.833328 1025 1 1025 C 1 683.666687 1 342.333344 1 1 C 342.333344 1 683.666687 1 1025 1 C 1025 342.333344 1025 683.666687 1025 1025 C 917.833313 1025 810.666687 1025 703 1025 M 640.498169 279.951111 C 612.740906 279.951111 584.983704 279.951111 557.651672 279.951111 C 557.480591 278.117279 557.27301 276.807953 557.251099 275.495483 C 557.165161 270.339508 556.729126 265.145203 557.196045 260.035767 C 557.729431 254.199814 556.306458 252.014343 550.466919 251.963577 C 544.135437 251.908524 537.80304 251.950256 531.471069 251.951294 C 524.208008 251.952469 522.951355 253.231033 522.951355 260.612732 C 522.951294 413.913422 522.951233 567.214111 522.951233 720.514771 C 522.951233 721.847839 523.069702 723.193481 522.928711 724.511475 C 522.55658 727.989502 523.980286 729.200562 527.49823 729.115173 C 535.991455 728.90918 544.498779 728.862183 552.988647 729.127441 C 556.941101 729.250916 558.162415 728.032349 558.13208 724.033325 C 557.959961 701.372742 558.055542 678.710266 558.033752 656.048401 C 558.032288 654.479675 557.817871 652.911133 557.702881 651.3479 C 581.643127 651.3479 605.712341 651.3479 629.663818 651.3479 C 629.663818 665.383911 629.663818 679.119263 629.663818 692.929504 C 628.300842 692.551147 627.226562 691.997437 626.149902 691.992859 C 612.153137 691.933777 598.155212 691.865479 584.159607 692.004761 C 579.929199 692.046814 576.977905 695.43042 576.96051 699.612427 C 576.928528 707.277283 576.940918 714.942444 576.954529 722.607483 C 576.965088 728.528198 577.495972 729.044067 583.635559 729.045776 C 609.296753 729.052917 634.958923 728.938721 660.618347 729.151367 C 665.17865 729.189148 666.151978 727.653564 666.132141 723.405701 C 665.977356 690.246826 666.047974 657.086975 666.048706 623.927368 C 666.048889 616.570862 664.468079 614.865417 657.227844 614.970398 C 638.144104 615.24707 619.062683 615.787537 599.978577 615.882935 C 589.738647 615.934082 579.496948 615.157715 569.252441 615.019287 C 565.616394 614.970093 561.969788 615.703308 558.388855 616.07312 C 558.388855 608.94873 558.388855 602.550232 558.388855 596.048828 C 560.386414 596.048828 562.045288 596.048767 563.704163 596.048767 C 596.03064 596.048767 628.357178 596.007629 660.68335 596.1073 C 664.239319 596.118225 666.284485 595.711487 666.137268 591.338623 C 665.84021 582.517212 666.2677 573.668579 665.85791 564.856201 C 665.779114 563.161926 663.465149 560.549683 661.775146 560.169128 C 658.462952 559.42334 654.864136 559.95105 651.383911 559.95105 C 621.723572 559.951172 592.063232 559.954468 562.402893 559.94104 C 560.979492 559.94043 559.556274 559.792419 557.605469 559.683655 C 557.605469 521.248596 557.605469 483.231934 557.605469 445.049133 C 587.544739 445.049133 617.364807 445.012543 647.184509 445.093414 C 651.10437 445.104034 655.0224 445.983185 658.941772 445.987427 C 665.151123 445.994171 666.045959 444.928406 666.048157 438.904907 C 666.050781 431.739777 666.049805 424.574615 666.048584 417.409485 C 666.047302 410.320465 664.719238 408.951996 657.825562 408.951721 C 626.332275 408.950378 594.838989 408.951111 563.345703 408.951111 C 561.600891 408.951111 559.85614 408.951111 557.585327 408.951111 C 557.585327 377.574036 557.585327 346.921173 557.585327 316.050018 C 585.605652 316.050018 613.578857 315.993744 641.551575 316.095337 C 647.471741 316.116852 653.389648 316.971405 659.308899 316.975983 C 665.164307 316.98053 666.045532 315.809357 666.047974 310.038788 C 666.051453 302.040497 666.058838 294.042175 666.044556 286.043915 C 666.037659 282.175995 662.523926 278.849457 658.700928 279.049164 C 652.966187 279.348755 647.231567 279.65036 640.498169 279.951111 M 450.054047 531.717773 C 450.672363 530.831055 451.263489 529.198486 451.913239 529.174805 C 457.508179 528.97113 463.113708 529.057678 468.94632 529.057678 C 468.94632 531.417847 468.94632 533.227051 468.94632 535.036194 C 468.94632 570.869385 468.946259 606.702637 468.94632 642.535828 C 468.94635 669.702393 469.021759 696.869385 468.864258 724.035034 C 468.841064 728.032349 470.053284 729.279297 474.007751 729.133423 C 481.497559 728.857178 489.021057 728.74939 496.499481 729.150635 C 502.281128 729.460876 504.118988 728.08197 504.058411 721.376221 C 503.683014 679.789917 503.23819 638.203247 503.118835 596.615845 C 503.065948 578.196655 503.909119 559.776184 503.983704 541.354797 C 504.029266 530.102661 503.084106 518.846619 503.124664 507.594299 C 503.185638 490.673004 503.978638 473.753876 504.007935 456.833008 C 504.120758 391.666809 504.05368 326.500244 504.05365 261.333832 C 504.05365 260.333832 504.168701 259.31781 504.032654 258.336639 C 503.480804 254.355484 501.88327 251.705505 497.135468 251.883347 C 490.478149 252.132721 483.804474 251.929733 477.137909 251.951111 C 470.795837 251.971436 468.947113 253.815063 468.947021 260.058258 C 468.945953 335.391296 468.944366 410.724365 468.957397 486.057404 C 468.957733 487.93692 469.123291 489.816467 469.206757 491.589539 C 462.916931 491.589539 456.520142 491.589539 450.052368 491.589539 C 450.052368 449.569611 449.895081 407.905182 450.208008 366.244324 C 450.259888 359.339233 446.283661 357.260742 440.961243 357.009003 C 435.140961 356.733673 429.297119 356.900543 423.464386 356.959381 C 417.739349 357.017181 414.909271 359.959625 414.953644 365.802582 C 415.273315 407.889587 415.878082 449.976471 415.873169 492.063324 C 415.868042 535.816895 415.183197 579.570007 414.977722 623.324097 C 414.820374 656.823242 414.966461 690.32373 414.919037 723.823547 C 414.913635 727.640808 416.597595 729.145142 420.347321 729.089783 C 428.34552 728.971619 436.36084 728.767212 444.34137 729.161133 C 449.130493 729.397522 450.154419 727.715942 450.144348 723.183777 C 450.003632 659.684448 450.051666 596.184631 450.054047 531.717773 M 395.059204 673.5 C 395.059204 605.875977 395.060181 538.251892 395.057434 470.627869 C 395.05722 465.020905 393.087555 463.00177 387.448242 462.952209 C 381.619019 462.901001 375.735321 462.444763 369.973145 463.06839 C 363.005219 463.822479 359.800446 464.194214 359.822693 473.300537 C 360.024536 555.914673 359.941498 638.52948 359.941864 721.144043 C 359.941864 722.143433 359.962433 723.14325 359.937988 724.142029 C 359.858948 727.370911 361.283508 729.083313 364.652161 729.070251 C 373.479797 729.036072 382.311707 729.190186 391.131195 728.919312 C 392.480286 728.877869 394.802734 727.073853 394.909698 725.921265 C 395.337738 721.308044 395.062256 716.630249 395.060669 711.976379 C 395.056427 699.484253 395.059204 686.992126 395.059204 673.5 M 423.683258 324.041443 C 430.344116 324.041412 437.005066 324.018066 443.665771 324.049774 C 447.954529 324.07019 450.18399 322.611115 450.129822 317.704651 C 449.914734 298.224091 450.047058 278.739716 450.037598 259.256775 C 450.035065 254.070526 447.967529 252.018265 442.554352 251.972885 C 435.560974 251.914246 428.566467 251.993546 421.572937 251.945847 C 417.104065 251.915359 414.939972 254.017014 414.946533 258.515289 C 414.974609 277.831665 414.928802 297.148163 414.975311 316.464508 C 414.990723 322.858215 416.214905 323.963013 423.683258 324.041443 M 372.936584 275.966309 C 371.254578 276.482208 369.575378 277.007477 367.890076 277.51236 C 358.971863 280.184113 352.66272 285.709778 347.471344 293.558014 C 343.074219 300.205627 344.472961 307.036133 343.954681 313.91983 C 342.991882 326.707214 350.710052 334.412415 360.184723 340.564423 C 372.672272 348.67276 392.371948 344.826019 403.398193 333.879272 C 413.246185 324.102325 414.193726 301.550446 407.065399 291.404114 C 398.847412 279.706665 387.672302 275.18689 372.936584 275.966309 M 607.683655 465.962128 C 605.534912 465.962219 603.353699 465.719055 601.242432 466.000275 C 581.760437 468.595093 574.153076 484.306732 577.221375 501.081604 C 579.972656 516.123535 600.874817 525.558838 614.945496 519.057251 C 628.104492 512.976929 634.476135 500.528778 630.870483 485.752502 C 628.781799 477.192749 618.209473 465.935242 607.683655 465.962128 M 396.038574 416.316589 C 398.30838 409.890137 398.640503 403.703888 396.19278 396.981354 C 389.960602 379.86499 366.789154 372.770386 351.67218 385.733459 C 344.550354 391.840576 344.016235 399.707184 343.718994 408.395721 C 343.392212 417.948944 347.949097 424.265228 354.891663 428.873566 C 367.030212 436.930878 387.82782 435.205994 396.038574 416.316589 M 586.534729 383.05722 C 595.878418 392.443848 617.075684 392.062836 625.799194 380.97995 C 634.023987 370.530609 635.882202 352.378967 621.316589 340.711365 C 611.703125 333.01059 595.515991 332.193878 584.10614 344.165344 C 576.348694 352.304596 574.605164 374.976074 586.534729 383.05722 z" stroke-linecap="round" />
</g>
<g transform="matrix(1 0 0 1 621.51 517.55)"  >
<path style="stroke: none; stroke-width: 1; stroke-dasharray: none; stroke-linecap: butt; stroke-dashoffset: 0; stroke-linejoin: miter; stroke-miterlimit: 4; fill: rgb(229,230,231); fill-rule: nonzero; opacity: 1;" vector-effect="non-scaling-stroke"  transform=" translate(-594.51, -490.54)" d="M 640.997559 279.951111 C 647.231567 279.65036 652.966187 279.348755 658.700928 279.049164 C 662.523926 278.849457 666.037659 282.175995 666.044556 286.043915 C 666.058838 294.042175 666.051453 302.040497 666.047974 310.038788 C 666.045532 315.809357 665.164307 316.98053 659.308899 316.975983 C 653.389648 316.971405 647.471741 316.116852 641.551575 316.095337 C 613.578857 315.993744 585.605652 316.050018 557.585327 316.050018 C 557.585327 346.921173 557.585327 377.574036 557.585327 408.951111 C 559.85614 408.951111 561.600891 408.951111 563.345703 408.951111 C 594.838989 408.951111 626.332275 408.950378 657.825562 408.951721 C 664.719238 408.951996 666.047302 410.320465 666.048584 417.409485 C 666.049805 424.574615 666.050781 431.739777 666.048157 438.904907 C 666.045959 444.928406 665.151123 445.994171 658.941772 445.987427 C 655.0224 445.983185 651.10437 445.104034 647.184509 445.093414 C 617.364807 445.012543 587.544739 445.049133 557.605469 445.049133 C 557.605469 483.231934 557.605469 521.248596 557.605469 559.683655 C 559.556274 559.792419 560.979492 559.94043 562.402893 559.94104 C 592.063232 559.954468 621.723572 559.951172 651.383911 559.95105 C 654.864136 559.95105 658.462952 559.42334 661.775146 560.169128 C 663.465149 560.549683 665.779114 563.161926 665.85791 564.856201 C 666.2677 573.668579 665.84021 582.517212 666.137268 591.338623 C 666.284485 595.711487 664.239319 596.118225 660.68335 596.1073 C 628.357178 596.007629 596.03064 596.048767 563.704163 596.048767 C 562.045288 596.048767 560.386414 596.048828 558.388855 596.048828 C 558.388855 602.550232 558.388855 608.94873 558.388855 616.07312 C 561.969788 615.703308 565.616394 614.970093 569.252441 615.019287 C 579.496948 615.157715 589.738647 615.934082 599.978577 615.882935 C 619.062683 615.787537 638.144104 615.24707 657.227844 614.970398 C 664.468079 614.865417 666.048889 616.570862 666.048706 623.927368 C 666.047974 657.086975 665.977356 690.246826 666.132141 723.405701 C 666.151978 727.653564 665.17865 729.189148 660.618347 729.151367 C 634.958923 728.938721 609.296753 729.052917 583.635559 729.045776 C 577.495972 729.044067 576.965088 728.528198 576.954529 722.607483 C 576.940918 714.942444 576.928528 707.277283 576.96051 699.612427 C 576.977905 695.43042 579.929199 692.046814 584.159607 692.004761 C 598.155212 691.865479 612.153137 691.933777 626.149902 691.992859 C 627.226562 691.997437 628.300842 692.551147 629.663818 692.929504 C 629.663818 679.119263 629.663818 665.383911 629.663818 651.3479 C 605.712341 651.3479 581.643127 651.3479 557.702881 651.3479 C 557.817871 652.911133 558.032288 654.479675 558.033752 656.048401 C 558.055542 678.710266 557.959961 701.372742 558.13208 724.033325 C 558.162415 728.032349 556.941101 729.250916 552.988647 729.127441 C 544.498779 728.862183 535.991455 728.90918 527.49823 729.115173 C 523.980286 729.200562 522.55658 727.989502 522.928711 724.511475 C 523.069702 723.193481 522.951233 721.847839 522.951233 720.514771 C 522.951233 567.214111 522.951294 413.913422 522.951355 260.612732 C 522.951355 253.231033 524.208008 251.952469 531.471069 251.951294 C 537.80304 251.950256 544.135437 251.908524 550.466919 251.963577 C 556.306458 252.014343 557.729431 254.199814 557.196045 260.035767 C 556.729126 265.145203 557.165161 270.339508 557.251099 275.495483 C 557.27301 276.807953 557.480591 278.117279 557.651672 279.951111 C 584.983704 279.951111 612.740906 279.951111 640.997559 279.951111 M 531.546509 727.255737 C 537.542908 727.252136 543.569092 726.878906 549.526367 727.359558 C 554.471924 727.758606 555.343384 725.781067 555.290588 721.383118 C 555.0448 700.887146 555.092896 680.387573 555.039307 659.889282 C 555.030273 656.434631 555.037964 652.980042 555.037964 649.333252 C 581.243469 649.333252 606.812317 649.333252 632.987244 649.333252 C 632.987244 663.41217 632.868774 677.192627 633.064026 690.968567 C 633.118286 694.794128 631.765442 695.766357 628.130859 695.717773 C 613.63446 695.524109 599.134033 695.656433 584.635986 695.54541 C 581.657104 695.522583 579.848389 696.136902 579.899841 699.608521 C 580.016052 707.439575 579.969788 715.273315 579.94751 723.105896 C 579.939331 725.974976 581.086365 727.25 584.14801 727.238831 C 609.47876 727.14624 634.809875 727.155701 660.14093 727.172119 C 663.075256 727.174011 664.237183 725.995483 664.22644 722.953674 C 664.108704 689.624512 664.071045 656.294922 664.081726 622.965454 C 664.082825 619.564087 662.80249 618.26532 659.323181 618.283325 C 625.330322 618.459412 591.336914 618.519348 557.343567 618.593323 C 556.716431 618.594727 556.088684 618.362122 555.311279 618.209229 C 555.311279 610.144897 555.311279 602.245789 555.311279 593.912537 C 557.411255 593.912537 559.208679 593.911194 561.006104 593.91272 C 593.17041 593.940186 625.334656 593.972229 657.498962 593.992493 C 663.944458 593.996521 663.962158 593.976379 664.024963 587.339661 C 664.081787 581.340515 664.117615 575.341003 664.120056 569.341614 C 664.122742 562.764465 664.101379 562.733154 657.392334 562.728516 C 625.394958 562.706421 593.397522 562.707336 561.400146 562.681702 C 559.454224 562.680176 557.508423 562.520874 555.345459 562.425354 C 555.345459 522.530945 555.345459 483.127808 555.345459 443.086975 C 558.618835 443.086975 561.569275 443.081604 564.519714 443.087799 C 595.683655 443.153351 626.84845 443.126465 658.010803 443.384674 C 662.94043 443.425537 664.455994 441.771027 664.214661 437.024536 C 663.885071 430.541718 663.918762 424.020813 664.196899 417.533417 C 664.385986 413.122833 662.761597 411.803864 658.401733 411.829559 C 626.071899 412.020233 593.740784 411.990631 561.410034 412.029694 C 559.467712 412.032043 557.525391 412.029999 555.367554 412.029999 C 555.367554 379.062103 555.367554 346.69693 555.367554 314.0289 C 557.570129 314.0289 559.385376 314.026398 561.200623 314.029266 C 593.364624 314.080109 625.528687 314.134155 657.692688 314.180786 C 663.83844 314.189697 664.055176 313.957825 664.067749 307.61676 C 664.079956 301.450867 663.769531 295.263885 664.184021 289.125519 C 664.536621 283.905121 662.482422 282.68689 657.571594 282.715485 C 625.24176 282.903839 592.910339 282.813751 560.579407 282.814484 C 558.823608 282.814514 557.067749 282.814484 554.928162 282.814484 C 554.928162 274.590027 554.779419 267.099335 554.99054 259.618866 C 555.097107 255.841049 553.671692 254.659866 550.000366 254.814117 C 543.844543 255.072784 537.650024 255.233398 531.511841 254.82814 C 526.616821 254.504944 525.281738 256.076538 525.297119 260.990967 C 525.490845 322.984436 525.506042 384.978668 525.480591 446.972626 C 525.442932 538.797852 525.35968 630.623169 525.183716 722.448242 C 525.175659 726.64917 526.795288 727.847717 531.546509 727.255737 z" stroke-linecap="round" />
</g>
<g transform="matrix(1 0 0 1 486.5 517.53)"  >
<path style="stroke: none; stroke-width: 1; stroke-dasharray: none; stroke-linecap: butt; stroke-dashoffset: 0; stroke-linejoin: miter; stroke-miterlimit: 4; fill: rgb(227,228,228); fill-rule: nonzero; opacity: 1;" vector-effect="non-scaling-stroke"  transform=" translate(-459.5, -490.53)" d="M 450.053894 532.201355 C 450.051666 596.184631 450.003632 659.684448 450.144348 723.183777 C 450.154419 727.715942 449.130493 729.397522 444.34137 729.161133 C 436.36084 728.767212 428.34552 728.971619 420.347321 729.089783 C 416.597595 729.145142 414.913635 727.640808 414.919037 723.823547 C 414.966461 690.32373 414.820374 656.823242 414.977722 623.324097 C 415.183197 579.570007 415.868042 535.816895 415.873169 492.063324 C 415.878082 449.976471 415.273315 407.889587 414.953644 365.802582 C 414.909271 359.959625 417.739349 357.017181 423.464386 356.959381 C 429.297119 356.900543 435.140961 356.733673 440.961243 357.009003 C 446.283661 357.260742 450.259888 359.339233 450.208008 366.244324 C 449.895081 407.905182 450.052368 449.569611 450.052368 491.589539 C 456.520142 491.589539 462.916931 491.589539 469.206757 491.589539 C 469.123291 489.816467 468.957733 487.93692 468.957397 486.057404 C 468.944366 410.724365 468.945953 335.391296 468.947021 260.058258 C 468.947113 253.815063 470.795837 251.971436 477.137909 251.951111 C 483.804474 251.929733 490.478149 252.132721 497.135468 251.883347 C 501.88327 251.705505 503.480804 254.355484 504.032654 258.336639 C 504.168701 259.31781 504.05365 260.333832 504.05365 261.333832 C 504.05368 326.500244 504.120758 391.666809 504.007935 456.833008 C 503.978638 473.753876 503.185638 490.673004 503.124664 507.594299 C 503.084106 518.846619 504.029266 530.102661 503.983704 541.354797 C 503.909119 559.776184 503.065948 578.196655 503.118835 596.615845 C 503.23819 638.203247 503.683014 679.789917 504.058411 721.376221 C 504.118988 728.08197 502.281128 729.460876 496.499481 729.150635 C 489.021057 728.74939 481.497559 728.857178 474.007751 729.133423 C 470.053284 729.279297 468.841064 728.032349 468.864258 724.035034 C 469.021759 696.869385 468.94635 669.702393 468.94632 642.535828 C 468.946259 606.702637 468.94632 570.869385 468.94632 535.036194 C 468.94632 533.227051 468.94632 531.417847 468.94632 529.057678 C 463.113708 529.057678 457.508179 528.97113 451.913239 529.174805 C 451.263489 529.198486 450.672363 530.831055 450.053894 532.201355 M 447.708191 548.500671 C 447.708191 541.423279 447.708191 534.345947 447.708191 527.480225 C 456.212372 527.480225 463.957855 527.480225 472.012512 527.480225 C 472.012512 529.726501 472.014648 531.54126 472.012238 533.356018 C 471.928741 596.336853 471.868103 659.317749 471.70047 722.29834 C 471.690887 725.903809 472.594269 727.408752 476.473633 727.219177 C 482.457092 726.926758 488.466553 727.126038 494.464417 727.178894 C 500.958832 727.236145 501.140808 727.095642 501.14209 720.494629 C 501.1633 610.527954 501.179779 500.56134 501.201508 390.594696 C 501.210052 347.440613 501.172516 304.286316 501.32428 261.13269 C 501.340637 256.480499 500.18512 254.375977 495.162567 254.751541 C 489.691589 255.16066 484.172516 254.932007 478.674377 254.97084 C 471.73407 255.019852 471.744171 255.015228 471.752502 261.848846 C 471.844055 337.16037 471.93576 412.471863 472.004028 487.783417 C 472.006073 490.036407 471.752502 492.289673 471.6138 494.614868 C 463.400208 494.614868 455.785614 494.614868 447.967407 494.614868 C 447.8638 493.299927 447.701416 492.164124 447.695892 491.027557 C 447.630951 477.698395 447.555878 464.369171 447.548889 451.039886 C 447.53418 422.881287 447.478027 394.722229 447.643829 366.564575 C 447.672241 361.748444 445.97049 359.962341 441.213196 360.193848 C 435.728394 360.460693 430.219696 360.240143 424.721375 360.22406 C 417.815552 360.203888 417.785583 360.214294 417.789948 367.195099 C 417.844849 454.835541 417.920044 542.475952 417.955322 630.116394 C 417.967529 660.440918 417.879913 690.765381 417.846954 721.089905 C 417.839874 727.60022 417.856598 727.547791 424.512665 727.377014 C 430.008026 727.236023 435.506897 727.21875 441.004456 727.18219 C 447.545013 727.138733 447.758362 726.960693 447.756653 720.451904 C 447.741638 663.46814 447.719757 606.484375 447.708191 548.500671 z" stroke-linecap="round" />
</g>
<g transform="matrix(1 0 0 1 404.48 622.91)"  >
<path style="stroke: none; stroke-width: 1; stroke-dasharray: none; stroke-linecap: butt; stroke-dashoffset: 0; stroke-linejoin: miter; stroke-miterlimit: 4; fill: rgb(224,225,225); fill-rule: nonzero; opacity: 1;" vector-effect="non-scaling-stroke"  transform=" translate(-377.49, -595.91)" d="M 395.059204 674 C 395.059204 686.992126 395.056427 699.484253 395.060669 711.976379 C 395.062256 716.630249 395.337738 721.308044 394.909698 725.921265 C 394.802734 727.073853 392.480286 728.877869 391.131195 728.919312 C 382.311707 729.190186 373.479797 729.036072 364.652161 729.070251 C 361.283508 729.083313 359.858948 727.370911 359.937988 724.142029 C 359.962433 723.14325 359.941864 722.143433 359.941864 721.144043 C 359.941498 638.52948 360.024536 555.914673 359.822693 473.300537 C 359.800446 464.194214 363.005219 463.822479 369.973145 463.06839 C 375.735321 462.444763 381.619019 462.901001 387.448242 462.952209 C 393.087555 463.00177 395.05722 465.020905 395.057434 470.627869 C 395.060181 538.251892 395.059204 605.875977 395.059204 674 M 392.966736 491.500183 C 392.931 484.839233 392.764587 478.175507 392.907806 471.518402 C 392.995819 467.427307 391.436462 465.803162 387.272095 466.059326 C 381.294006 466.427032 375.272858 466.73645 369.304169 466.422699 C 364.099915 466.149078 362.768036 468.224976 362.818542 473.098572 C 362.999756 490.581268 362.813049 508.067688 362.786316 525.552734 C 362.686615 590.82959 362.632141 656.106567 362.420715 721.383057 C 362.406036 725.912292 363.703033 727.721802 368.376221 727.470093 C 374.521179 727.139221 380.707825 727.088318 386.852112 727.399292 C 391.519043 727.635559 393.134125 726.298035 393.122711 721.307068 C 392.948334 645.038391 392.981934 568.769165 392.966736 491.500183 z" stroke-linecap="round" />
</g>
<g transform="matrix(1 0 0 1 459.54 315)"  >
<path style="stroke: none; stroke-width: 1; stroke-dasharray: none; stroke-linecap: butt; stroke-dashoffset: 0; stroke-linejoin: miter; stroke-miterlimit: 4; fill: rgb(233,234,234); fill-rule: nonzero; opacity: 1;" vector-effect="non-scaling-stroke"  transform=" translate(-432.54, -288)" d="M 423.210022 324.041382 C 416.214905 323.963013 414.990723 322.858215 414.975311 316.464508 C 414.928802 297.148163 414.974609 277.831665 414.946533 258.515289 C 414.939972 254.017014 417.104065 251.915359 421.572937 251.945847 C 428.566467 251.993546 435.560974 251.914246 442.554352 251.972885 C 447.967529 252.018265 450.035065 254.070526 450.037598 259.256775 C 450.047058 278.739716 449.914734 298.224091 450.129822 317.704651 C 450.18399 322.611115 447.954529 324.07019 443.665771 324.049774 C 437.005066 324.018066 430.344116 324.041412 423.210022 324.041382 M 447.633728 263.564178 C 447.636353 262.065857 447.633331 260.567535 447.642914 259.069244 C 447.661041 256.229675 446.387299 254.776108 443.415619 254.799744 C 436.091095 254.857956 428.765411 254.865555 421.44101 254.801117 C 418.561981 254.775803 417.720032 256.252533 417.724457 258.862671 C 417.757477 278.339325 417.792358 297.816376 417.681488 317.29248 C 417.662323 320.657898 419.150177 321.719696 422.185242 321.694427 C 428.510925 321.641754 434.837341 321.685638 441.163361 321.664246 C 447.039917 321.644409 447.661285 321.016388 447.664307 314.989929 C 447.672821 298.175629 447.659637 281.361359 447.633728 263.564178 z" stroke-linecap="round" />
</g>
<g transform="matrix(1 0 0 1 404.79 337.39)"  >
<path style="stroke: none; stroke-width: 1; stroke-dasharray: none; stroke-linecap: butt; stroke-dashoffset: 0; stroke-linejoin: miter; stroke-miterlimit: 4; fill: rgb(237,237,237); fill-rule: nonzero; opacity: 1;" vector-effect="non-scaling-stroke"  transform=" translate(-377.79, -310.39)" d="M 373.391876 275.965637 C 387.672302 275.18689 398.847412 279.706665 407.065399 291.404114 C 414.193726 301.550446 413.246185 324.102325 403.398193 333.879272 C 392.371948 344.826019 372.672272 348.67276 360.184723 340.564423 C 350.710052 334.412415 342.991882 326.707214 343.954681 313.91983 C 344.472961 307.036133 343.074219 300.205627 347.471344 293.558014 C 352.66272 285.709778 358.971863 280.184113 367.890076 277.51236 C 369.575378 277.007477 371.254578 276.482208 373.391876 275.965637 M 346.161865 317.802582 C 350.877777 335.27951 366.510742 345.293823 383.740204 341.874847 C 397.746399 339.09549 408.713043 327.260895 409.706177 313.853943 C 410.849792 298.415833 402.937714 285.560974 389.317963 280.728821 C 365.182587 272.165863 342.084839 291.487671 346.161865 317.802582 z" stroke-linecap="round" />
</g>
<g transform="matrix(1 0 0 1 631.21 520.5)"  >
<path style="stroke: none; stroke-width: 1; stroke-dasharray: none; stroke-linecap: butt; stroke-dashoffset: 0; stroke-linejoin: miter; stroke-miterlimit: 4; fill: rgb(237,237,237); fill-rule: nonzero; opacity: 1;" vector-effect="non-scaling-stroke"  transform=" translate(-604.22, -493.5)" d="M 608.113647 465.963409 C 618.209473 465.935242 628.781799 477.192749 630.870483 485.752502 C 634.476135 500.528778 628.104492 512.976929 614.945496 519.057251 C 600.874817 525.558838 579.972656 516.123535 577.221375 501.081604 C 574.153076 484.306732 581.760437 468.595093 601.242432 466.000275 C 603.353699 465.719055 605.534912 465.962219 608.113647 465.963409 M 582.000549 505.215973 C 588.897583 516.292664 599.364319 520.639648 611.400879 517.426331 C 621.490967 514.732666 628.834045 505.37323 629.253845 494.67099 C 629.68457 483.691193 622.5448 473.061432 612.197998 469.581055 C 601.902588 466.118042 592.889954 469.03186 585.860107 476.66745 C 578.440247 484.726654 577.272217 494.371399 582.000549 505.215973 z" stroke-linecap="round" />
</g>
<g transform="matrix(1 0 0 1 397.79 433.25)"  >
<path style="stroke: none; stroke-width: 1; stroke-dasharray: none; stroke-linecap: butt; stroke-dashoffset: 0; stroke-linejoin: miter; stroke-miterlimit: 4; fill: rgb(237,237,237); fill-rule: nonzero; opacity: 1;" vector-effect="non-scaling-stroke"  transform=" translate(-370.8, -406.25)" d="M 396.025238 416.724487 C 387.82782 435.205994 367.030212 436.930878 354.891663 428.873566 C 347.949097 424.265228 343.392212 417.948944 343.718994 408.395721 C 344.016235 399.707184 344.550354 391.840576 351.67218 385.733459 C 366.789154 372.770386 389.960602 379.86499 396.19278 396.981354 C 398.640503 403.703888 398.30838 409.890137 396.025238 416.724487 M 345.275665 405.4776 C 345.592194 407.94458 345.666138 410.472412 346.266907 412.868103 C 348.970154 423.647766 359.284607 431.12561 370.901581 430.895172 C 382.642853 430.662292 392.221771 423.245056 394.676239 412.485657 C 397.332916 400.84021 392.045502 389.712006 381.421204 384.588318 C 365.064178 376.699921 348.077942 386.13269 345.275665 405.4776 z" stroke-linecap="round" />
</g>
<g transform="matrix(1 0 0 1 632.01 389.36)"  >
<path style="stroke: none; stroke-width: 1; stroke-dasharray: none; stroke-linecap: butt; stroke-dashoffset: 0; stroke-linejoin: miter; stroke-miterlimit: 4; fill: rgb(238,239,239); fill-rule: nonzero; opacity: 1;" vector-effect="non-scaling-stroke"  transform=" translate(-605.02, -362.36)" d="M 586.268921 382.809021 C 574.605164 374.976074 576.348694 352.304596 584.10614 344.165344 C 595.515991 332.193878 611.703125 333.01059 621.316589 340.711365 C 635.882202 352.378967 634.023987 370.530609 625.799194 380.97995 C 617.075684 392.062836 595.878418 392.443848 586.268921 382.809021 M 615.841492 340.375031 C 614.120972 339.756042 612.434692 339.009155 610.674438 338.53891 C 599.611755 335.583618 587.621216 341.003387 582.923218 351.022644 C 577.440979 362.714691 580.244507 375.44104 589.845947 382.44751 C 601.462158 390.924225 617.706665 388.545258 625.28656 377.257294 C 633.916382 364.405975 630.219971 349.048035 615.841492 340.375031 z" stroke-linecap="round" />
</g>
<g transform="matrix(1 0 0 1 623.42 518.1)"  >
<path style="stroke: none; stroke-width: 1; stroke-dasharray: none; stroke-linecap: butt; stroke-dashoffset: 0; stroke-linejoin: miter; stroke-miterlimit: 4; fill: rgb(255,255,255); fill-rule: nonzero; opacity: 1;" vector-effect="non-scaling-stroke"  transform=" translate(-594.71, -491.1)" d="M 531.049316 727.257263 C 526.795288 727.847717 525.175659 726.64917 525.183716 722.448242 C 525.35968 630.623169 525.442932 538.797852 525.480591 446.972626 C 525.506042 384.978668 525.490845 322.984436 525.297119 260.990967 C 525.281738 256.076538 526.616821 254.504944 531.511841 254.82814 C 537.650024 255.233398 543.844543 255.072784 550.000366 254.814117 C 553.671692 254.659866 555.097107 255.841049 554.99054 259.618866 C 554.779419 267.099335 554.928162 274.590027 554.928162 282.814484 C 557.067749 282.814484 558.823608 282.814514 560.579407 282.814484 C 592.910339 282.813751 625.24176 282.903839 657.571594 282.715485 C 662.482422 282.68689 664.536621 283.905121 664.184021 289.125519 C 663.769531 295.263885 664.079956 301.450867 664.067749 307.61676 C 664.055176 313.957825 663.83844 314.189697 657.692688 314.180786 C 625.528687 314.134155 593.364624 314.080109 561.200623 314.029266 C 559.385376 314.026398 557.570129 314.0289 555.367554 314.0289 C 555.367554 346.69693 555.367554 379.062103 555.367554 412.029999 C 557.525391 412.029999 559.467712 412.032043 561.410034 412.029694 C 593.740784 411.990631 626.071899 412.020233 658.401733 411.829559 C 662.761597 411.803864 664.385986 413.122833 664.196899 417.533417 C 663.918762 424.020813 663.885071 430.541718 664.214661 437.024536 C 664.455994 441.771027 662.94043 443.425537 658.010803 443.384674 C 626.84845 443.126465 595.683655 443.153351 564.519714 443.087799 C 561.569275 443.081604 558.618835 443.086975 555.345459 443.086975 C 555.345459 483.127808 555.345459 522.530945 555.345459 562.425354 C 557.508423 562.520874 559.454224 562.680176 561.400146 562.681702 C 593.397522 562.707336 625.394958 562.706421 657.392334 562.728516 C 664.101379 562.733154 664.122742 562.764465 664.120056 569.341614 C 664.117615 575.341003 664.081787 581.340515 664.024963 587.339661 C 663.962158 593.976379 663.944458 593.996521 657.498962 593.992493 C 625.334656 593.972229 593.17041 593.940186 561.006104 593.91272 C 559.208679 593.911194 557.411255 593.912537 555.311279 593.912537 C 555.311279 602.245789 555.311279 610.144897 555.311279 618.209229 C 556.088684 618.362122 556.716431 618.594727 557.343567 618.593323 C 591.336914 618.519348 625.330322 618.459412 659.323181 618.283325 C 662.80249 618.26532 664.082825 619.564087 664.081726 622.965454 C 664.071045 656.294922 664.108704 689.624512 664.22644 722.953674 C 664.237183 725.995483 663.075256 727.174011 660.14093 727.172119 C 634.809875 727.155701 609.47876 727.14624 584.14801 727.238831 C 581.086365 727.25 579.939331 725.974976 579.94751 723.105896 C 579.969788 715.273315 580.016052 707.439575 579.899841 699.608521 C 579.848389 696.136902 581.657104 695.522583 584.635986 695.54541 C 599.134033 695.656433 613.63446 695.524109 628.130859 695.717773 C 631.765442 695.766357 633.118286 694.794128 633.064026 690.968567 C 632.868774 677.192627 632.987244 663.41217 632.987244 649.333252 C 606.812317 649.333252 581.243469 649.333252 555.037964 649.333252 C 555.037964 652.980042 555.030273 656.434631 555.039307 659.889282 C 555.092896 680.387573 555.0448 700.887146 555.290588 721.383118 C 555.343384 725.781067 554.471924 727.758606 549.526367 727.359558 C 543.569092 726.878906 537.542908 727.252136 531.049316 727.257263 z" stroke-linecap="round" />
</g>
<g transform="matrix(1 0 0 1 486.56 518.07)"  >
<path style="stroke: none; stroke-width: 1; stroke-dasharray: none; stroke-linecap: butt; stroke-dashoffset: 0; stroke-linejoin: miter; stroke-miterlimit: 4; fill: rgb(255,255,255); fill-rule: nonzero; opacity: 1;" vector-effect="non-scaling-stroke"  transform=" translate(-459.56, -491.07)" d="M 447.704041 549.00061 C 447.719757 606.484375 447.741638 663.46814 447.756653 720.451904 C 447.758362 726.960693 447.545013 727.138733 441.004456 727.18219 C 435.506897 727.21875 430.008026 727.236023 424.512665 727.377014 C 417.856598 727.547791 417.839874 727.60022 417.846954 721.089905 C 417.879913 690.765381 417.967529 660.440918 417.955322 630.116394 C 417.920044 542.475952 417.844849 454.835541 417.789948 367.195099 C 417.785583 360.214294 417.815552 360.203888 424.721375 360.22406 C 430.219696 360.240143 435.728394 360.460693 441.213196 360.193848 C 445.97049 359.962341 447.672241 361.748444 447.643829 366.564575 C 447.478027 394.722229 447.53418 422.881287 447.548889 451.039886 C 447.555878 464.369171 447.630951 477.698395 447.695892 491.027557 C 447.701416 492.164124 447.8638 493.299927 447.967407 494.614868 C 455.785614 494.614868 463.400208 494.614868 471.6138 494.614868 C 471.752502 492.289673 472.006073 490.036407 472.004028 487.783417 C 471.93576 412.471863 471.844055 337.16037 471.752502 261.848846 C 471.744171 255.015228 471.73407 255.019852 478.674377 254.97084 C 484.172516 254.932007 489.691589 255.16066 495.162567 254.751541 C 500.18512 254.375977 501.340637 256.480499 501.32428 261.13269 C 501.172516 304.286316 501.210052 347.440613 501.201508 390.594696 C 501.179779 500.56134 501.1633 610.527954 501.14209 720.494629 C 501.140808 727.095642 500.958832 727.236145 494.464417 727.178894 C 488.466553 727.126038 482.457092 726.926758 476.473633 727.219177 C 472.594269 727.408752 471.690887 725.903809 471.70047 722.29834 C 471.868103 659.317749 471.928741 596.336853 472.012238 533.356018 C 472.014648 531.54126 472.012512 529.726501 472.012512 527.480225 C 463.957855 527.480225 456.212372 527.480225 447.708191 527.480225 C 447.708191 534.345947 447.708191 541.423279 447.704041 549.00061 z" stroke-linecap="round" />
</g>
<g transform="matrix(1 0 0 1 403.06 623.76)"  >
<path style="stroke: none; stroke-width: 1; stroke-dasharray: none; stroke-linecap: butt; stroke-dashoffset: 0; stroke-linejoin: miter; stroke-miterlimit: 4; fill: rgb(255,255,255); fill-rule: nonzero; opacity: 1;" vector-effect="non-scaling-stroke"  transform=" translate(-377.77, -596.76)" d="M 392.966858 492.000153 C 392.981934 568.769165 392.948334 645.038391 393.122711 721.307068 C 393.134125 726.298035 391.519043 727.635559 386.852112 727.399292 C 380.707825 727.088318 374.521179 727.139221 368.376221 727.470093 C 363.703033 727.721802 362.406036 725.912292 362.420715 721.383057 C 362.632141 656.106567 362.686615 590.82959 362.786316 525.552734 C 362.813049 508.067688 362.999756 490.581268 362.818542 473.098572 C 362.768036 468.224976 364.099915 466.149078 369.304169 466.422699 C 375.272858 466.73645 381.294006 466.427032 387.272095 466.059326 C 391.436462 465.803162 392.995819 467.427307 392.907806 471.518402 C 392.764587 478.175507 392.931 484.839233 392.966858 492.000153 z" stroke-linecap="round" />
</g>
<g transform="matrix(1 0 0 1 459.67 315.25)"  >
<path style="stroke: none; stroke-width: 1; stroke-dasharray: none; stroke-linecap: butt; stroke-dashoffset: 0; stroke-linejoin: miter; stroke-miterlimit: 4; fill: rgb(255,255,255); fill-rule: nonzero; opacity: 1;" vector-effect="non-scaling-stroke"  transform=" translate(-432.67, -288.25)" d="M 447.644348 264.055603 C 447.659637 281.361359 447.672821 298.175629 447.664307 314.989929 C 447.661285 321.016388 447.039917 321.644409 441.163361 321.664246 C 434.837341 321.685638 428.510925 321.641754 422.185242 321.694427 C 419.150177 321.719696 417.662323 320.657898 417.681488 317.29248 C 417.792358 297.816376 417.757477 278.339325 417.724457 258.862671 C 417.720032 256.252533 418.561981 254.775803 421.44101 254.801117 C 428.765411 254.865555 436.091095 254.857956 443.415619 254.799744 C 446.387299 254.776108 447.661041 256.229675 447.642914 259.069244 C 447.633331 260.567535 447.636353 262.065857 447.644348 264.055603 z" stroke-linecap="round" />
</g>
<g transform="matrix(1 0 0 1 404.74 337.6)"  >
<path style="stroke: none; stroke-width: 1; stroke-dasharray: none; stroke-linecap: butt; stroke-dashoffset: 0; stroke-linejoin: miter; stroke-miterlimit: 4; fill: rgb(255,255,255); fill-rule: nonzero; opacity: 1;" vector-effect="non-scaling-stroke"  transform=" translate(-377.73, -310.61)" d="M 346.103088 317.365417 C 342.084839 291.487671 365.182587 272.165863 389.317963 280.728821 C 402.937714 285.560974 410.849792 298.415833 409.706177 313.853943 C 408.713043 327.260895 397.746399 339.09549 383.740204 341.874847 C 366.510742 345.293823 350.877777 335.27951 346.103088 317.365417 M 364.739807 305.421875 C 362.412506 312.811462 364.8172 319.511932 371.037476 322.969696 C 376.552277 326.035278 385.103912 323.943542 389.437958 318.468872 C 393.592133 313.221405 393.098511 306.225311 388.188721 300.764069 C 381.303802 293.105896 371.640442 294.768677 364.739807 305.421875 z" stroke-linecap="round" />
</g>
<g transform="matrix(1 0 0 1 631.21 520.3)"  >
<path style="stroke: none; stroke-width: 1; stroke-dasharray: none; stroke-linecap: butt; stroke-dashoffset: 0; stroke-linejoin: miter; stroke-miterlimit: 4; fill: rgb(255,255,255); fill-rule: nonzero; opacity: 1;" vector-effect="non-scaling-stroke"  transform=" translate(-604.21, -493.3)" d="M 581.828125 504.876099 C 577.272217 494.371399 578.440247 484.726654 585.860107 476.66745 C 592.889954 469.03186 601.902588 466.118042 612.197998 469.581055 C 622.5448 473.061432 629.68457 483.691193 629.253845 494.67099 C 628.834045 505.37323 621.490967 514.732666 611.400879 517.426331 C 599.364319 520.639648 588.897583 516.292664 581.828125 504.876099 z" stroke-linecap="round" />
</g>
<g transform="matrix(1 0 0 1 397.32 433.34)"  >
<path style="stroke: none; stroke-width: 1; stroke-dasharray: none; stroke-linecap: butt; stroke-dashoffset: 0; stroke-linejoin: miter; stroke-miterlimit: 4; fill: rgb(255,255,255); fill-rule: nonzero; opacity: 1;" vector-effect="non-scaling-stroke"  transform=" translate(-370.32, -406.35)" d="M 345.275513 405.069153 C 348.077942 386.13269 365.064178 376.699921 381.421204 384.588318 C 392.045502 389.712006 397.332916 400.84021 394.676239 412.485657 C 392.221771 423.245056 382.642853 430.662292 370.901581 430.895172 C 359.284607 431.12561 348.970154 423.647766 346.266907 412.868103 C 345.666138 410.472412 345.592194 407.94458 345.275513 405.069153 z" stroke-linecap="round" />
</g>
<g transform="matrix(1 0 0 1 632.03 389.63)"  >
<path style="stroke: none; stroke-width: 1; stroke-dasharray: none; stroke-linecap: butt; stroke-dashoffset: 0; stroke-linejoin: miter; stroke-miterlimit: 4; fill: rgb(255,255,255); fill-rule: nonzero; opacity: 1;" vector-effect="non-scaling-stroke"  transform=" translate(-605.03, -362.63)" d="M 616.17218 340.568787 C 630.219971 349.048035 633.916382 364.405975 625.28656 377.257294 C 617.706665 388.545258 601.462158 390.924225 589.845947 382.44751 C 580.244507 375.44104 577.440979 362.714691 582.923218 351.022644 C 587.621216 341.003387 599.611755 335.583618 610.674438 338.53891 C 612.434692 339.009155 614.120972 339.756042 616.17218 340.568787 z" stroke-linecap="round" />
</g>
<g transform="matrix(1 0 0 1 405.09 337.19)"  >
<path style="stroke: none; stroke-width: 1; stroke-dasharray: none; stroke-linecap: butt; stroke-dashoffset: 0; stroke-linejoin: miter; stroke-miterlimit: 4; fill: rgb(255,255,255); fill-rule: nonzero; opacity: 1;" vector-effect="non-scaling-stroke"  transform=" translate(-378.09, -310.19)" d="M 364.894257 305.083801 C 371.640442 294.768677 381.303802 293.105896 388.188721 300.764069 C 393.098511 306.225311 393.592133 313.221405 389.437958 318.468872 C 385.103912 323.943542 376.552277 326.035278 371.037476 322.969696 C 364.8172 319.511932 362.412506 312.811462 364.894257 305.083801 M 388.662445 306.181152 C 387.814972 305.014313 387.016205 303.808167 386.111359 302.687683 C 382.744141 298.518066 377.973053 297.508026 373.489868 299.971497 C 368.216339 302.869354 364.82016 309.232056 366.235352 313.562866 C 368.194824 319.559357 375.293762 322.872742 381.673615 320.768585 C 388.133392 318.638062 390.793732 313.570679 388.662445 306.181152 z" stroke-linecap="round" />
</g>
<g transform="matrix(1 0 0 1 404.68 337.03)"  >
<path style="stroke: none; stroke-width: 1; stroke-dasharray: none; stroke-linecap: butt; stroke-dashoffset: 0; stroke-linejoin: miter; stroke-miterlimit: 4; fill: rgb(255,255,255); fill-rule: nonzero; opacity: 1;" vector-effect="non-scaling-stroke"  transform=" translate(-377.68, -310.02)" d="M 388.802795 306.551514 C 390.793732 313.570679 388.133392 318.638062 381.673615 320.768585 C 375.293762 322.872742 368.194824 319.559357 366.235352 313.562866 C 364.82016 309.232056 368.216339 302.869354 373.489868 299.971497 C 377.973053 297.508026 382.744141 298.518066 386.111359 302.687683 C 387.016205 303.808167 387.814972 305.014313 388.802795 306.551514 z" stroke-linecap="round" />
</g>
</svg>